<?xml version="1.0" encoding="UTF-8" standalone="no"?>
<!DOCTYPE svg PUBLIC "-//W3C//DTD SVG 1.1//EN" "http://www.w3.org/Graphics/SVG/1.1/DTD/svg11.dtd">
<svg width="100%" height="100%" viewBox="0 0 1728 1206" version="1.1" xmlns="http://www.w3.org/2000/svg" xmlns:xlink="http://www.w3.org/1999/xlink" xml:space="preserve" xmlns:serif="http://www.serif.com/" style="fill-rule:evenodd;clip-rule:evenodd;stroke-linecap:round;stroke-linejoin:round;stroke-miterlimit:1.5;">
    <g transform="matrix(4.16667,0,0,4.16667,0,0)">
        <g id="Artboard1" transform="matrix(1,0,0,1,-623.256,-312.077)">
            <rect x="623.256" y="312.077" width="414.503" height="289.405" style="fill:none;"/>
            <g transform="matrix(1,0,0,1,0.256334,0.0768818)">
                <path d="M720.185,424.734C720.494,425.658 723.905,423.414 729.409,423.976C735.407,424.587 741.867,428.684 746.827,431.772C767.314,444.522 779.122,460.133 790.102,481.335C798.248,497.063 798.121,511.087 800.328,528.031C801.023,533.369 800.699,538.813 800.658,544.205C800.654,544.787 800.683,551.089 801.429,550.743C801.875,550.536 817.386,478.494 839.101,478.658C855.099,478.779 868.344,548.303 876.914,556.134C877.168,556.366 877.403,555.894 877.518,555.787C880.264,553.225 879.392,534.893 879.507,531.465C880.082,514.389 882.879,498.714 889.999,482.942C898.266,464.632 907.161,448.985 922.677,435.867C926.65,432.508 950.868,419.392 949.461,414.858" style="fill:none;stroke:rgb(155,98,99);stroke-width:6.5px;"/>
            </g>
            <g transform="matrix(1,0,0,1,0.256334,0.0768818)">
                <path d="M951.567,413.773C952.558,413.947 950.591,411.35 950.449,411.177C948.682,409.017 947.037,407.516 944.585,406.124C937.859,402.307 931.377,399.146 923.509,399.747C914.865,400.408 906.671,402.103 899.693,407.269C897.201,409.114 895.387,411.374 893.772,413.963C893.193,414.892 892.776,415.552 892.316,416.536C892.096,417.008 892.107,418.32 891.713,417.978C891.347,417.66 894.413,415.928 894.647,415.759C896.475,414.439 898.13,412.727 900.037,411.533C908.325,406.34 918.364,401.052 928.453,401.345C934.584,401.522 941.619,403.219 946.541,406.888C948.229,408.145 948.953,410.209 950.337,411.712C950.999,412.43 951.763,414.27 951.763,414.27C951.763,414.27 951.921,413.685 952.001,413.393" style="fill:none;stroke:rgb(57,157,68);stroke-width:6.5px;"/>
            </g>
            <g transform="matrix(1,0,0,1,0.256334,0.0768818)">
                <path d="M953.743,415.52C953.8,415.673 953.921,414.625 953.964,414.51C954.211,413.849 954.296,412.833 954.284,412.135C954.244,409.894 953.772,407.396 952.996,405.303C951.313,400.767 947.907,397.544 944.732,394.124C942.895,392.143 941.312,389.909 938.692,388.871C932.353,386.358 920.996,385.393 914.339,388.026C911.851,389.01 909.606,390.542 907.404,391.99C906.301,392.714 904.148,394.24 904.148,394.24C904.148,394.24 904.395,393.742 904.457,393.474C905.232,390.12 911.307,388.737 913.955,387.564C923.161,383.485 937.572,380.394 946.225,387.672C952.146,392.651 954.692,397.826 956.773,405.273C957.377,407.433 956.853,409.704 956.758,411.889C956.728,412.577 956.488,413.252 956.23,413.886C956.168,414.039 955.839,414.815 955.897,414.729" style="fill:none;stroke:rgb(57,157,68);stroke-width:6.5px;"/>
            </g>
            <g transform="matrix(1,0,0,1,0.256334,0.0768818)">
                <path d="M954.48,416.934C954.223,416.904 957.644,417.348 958.989,418.412C961.632,420.504 963.628,424.199 964.348,427.439C965.573,432.957 964.183,438.913 963.136,444.338C963.06,444.731 961.506,449.614 961.544,449.651C961.576,449.682 963.77,446.11 963.822,445.974C965.151,442.484 965.923,437.971 965.514,434.223C965.044,429.908 964.465,425.747 962.096,422.031C960.651,419.765 955.326,417.138 957.83,415.67C965.095,411.411 976.346,416.715 980.466,423.109C981.832,425.23 982.573,428.019 983.381,430.406C984.679,434.241 984.932,438.287 984.385,442.298C984.209,443.584 984.055,444.888 983.743,446.15C983.584,446.794 982.783,448.537 983.268,448.084C983.655,447.723 983.462,446.039 983.517,445.533C983.795,443.001 983.571,440.481 983.248,437.974C982.377,431.197 980.851,422.963 974.449,419.276C971.151,417.377 966.435,416.946 963.471,415.076" style="fill:none;stroke:rgb(57,157,68);stroke-width:6.5px;"/>
            </g>
            <g transform="matrix(1,0,0,1,0.256334,0.0768818)">
                <path d="M720.571,428.105C720.855,428.707 718.619,428.243 717.926,428.321C716.437,428.487 714.546,429.759 713.29,430.488C708.813,433.086 704.876,437.054 701.499,440.921C696.874,446.217 694.698,451.183 693.364,458.062C692.959,460.151 692.462,462.306 692.341,464.434C692.28,465.51 692.202,467.665 692.202,467.665C692.202,467.665 691.892,465.186 691.869,463.939C691.826,461.508 691.538,458.96 691.845,456.542C692.644,450.236 697.117,443.127 701.097,438.288C704.37,434.309 707.301,432.172 711.767,429.743C713.035,429.053 714.207,428.45 715.612,428.094C716.29,427.921 718.15,428.057 717.646,427.57C716.513,426.477 719.912,425.426 717.582,423.956C714.551,422.044 710.362,422.931 707.065,423.118C697.396,423.668 684.84,426.654 677.698,433.628C674.885,436.374 672.333,440.14 670.805,443.772C670.026,445.624 668.576,449.375 668.576,449.375C668.576,449.375 669.219,446.086 669.967,444.611C671.513,441.557 673.438,438.327 675.457,435.567C681.061,427.908 689.894,423.591 698.371,419.978C704.048,417.559 709.89,416.579 716.045,416.469C717.529,416.443 719.747,417.464 720.739,418.622C721.04,418.973 722.774,420.83 722.169,420.142" style="fill:none;stroke:rgb(57,157,68);stroke-width:6.5px;"/>
            </g>
            <g transform="matrix(1,0,0,1,0.256334,0.0768818)">
                <path d="M722.34,420.965C722.409,420.975 722.012,419.209 722.001,418.583C721.969,416.82 722.222,414.802 722.684,413.089C724.289,407.137 726.413,402.98 730.668,398.455C734.556,394.321 742.173,391.139 747.793,391.039C749.543,391.008 751.643,391.828 753.12,392.76C753.928,393.27 755.562,394.262 755.562,394.262C755.562,394.262 753.707,393.858 752.766,393.875C750.762,393.911 748.762,394.052 746.94,395.005C742.398,397.378 739.042,400.061 734.744,402.786C732.769,404.039 730.636,404.669 729.162,406.585C726.347,410.243 724.804,413.461 723.679,418.014C723.346,419.363 722.523,424.786 721.846,423.93" style="fill:none;stroke:rgb(57,157,68);stroke-width:6.5px;"/>
            </g>
            <g transform="matrix(1,0,0,1,0.256334,0.0768818)">
                <path d="M721.883,421.921C722.857,422.203 720.924,421.513 720.5,421.214C719.443,420.469 718.424,419.134 717.972,417.914C716.23,413.214 714.161,409.19 713.176,404.147C711.497,395.552 715.323,380.529 724.712,377.396C726.38,376.84 729.164,375.04 731.045,375.686C733.093,376.39 734.358,377.332 735.848,378.964C735.953,379.079 737.309,380.463 737.157,380.621C737.037,380.745 731.684,380.205 730.704,380.568C724.139,383.002 721.344,385.162 718.48,391.662C715.526,398.369 715.363,406.639 717.24,413.725C717.877,416.132 720.757,421.79 720.123,423.911" style="fill:none;stroke:rgb(57,157,68);stroke-width:6.5px;"/>
            </g>
        </g>
    </g>
</svg>
