<?xml version="1.0" encoding="UTF-8" standalone="no"?>
<!DOCTYPE svg PUBLIC "-//W3C//DTD SVG 1.1//EN" "http://www.w3.org/Graphics/SVG/1.1/DTD/svg11.dtd">
<svg width="100%" height="100%" viewBox="0 0 255 241" version="1.1" xmlns="http://www.w3.org/2000/svg" xmlns:xlink="http://www.w3.org/1999/xlink" xml:space="preserve" xmlns:serif="http://www.serif.com/" style="fill-rule:evenodd;clip-rule:evenodd;stroke-linejoin:round;stroke-miterlimit:2;">
    <g transform="matrix(1.04112,0,0,1.04112,-44.566,-57.9378)">
        <path d="M185.874,173.214C177.074,198.28 168.007,227.614 163.74,247.347C159.74,266.28 162.94,275.88 172.007,284.147C175.474,287.347 177.874,286.014 180.007,282.814C212.274,233.214 251.74,184.147 271.207,158.547C284.807,140.68 288.274,129.214 286.674,119.88C286.14,116.147 283.474,115.614 280.274,118.814C256.807,143.88 205.074,212.414 178.14,256.414C188.274,217.747 199.474,185.214 208.007,160.147C214.674,139.88 213.34,133.214 208.007,125.48C205.874,122.28 203.207,123.08 201.34,125.214C173.874,158.547 132.807,214.547 108.007,255.08C119.474,217.214 132.54,182.547 141.34,158.547C149.074,138.014 148.54,128.414 144.007,120.68C142.14,117.48 139.474,117.747 137.34,121.747C124.274,146.814 102.674,208.147 93.074,248.68C88.807,267.08 90.94,277.214 100.274,285.48C103.74,288.414 106.407,287.08 108.274,284.147C130.94,248.147 161.874,204.68 185.874,173.214Z" style="fill-rule:nonzero;"/>
    </g>
    <g id="Layer2" transform="matrix(0.367079,-0.0917951,0.0679041,0.271542,-5.36442,30.2924)">
        <path d="M211.38,273.939C221.479,256.179 224.683,230.973 204.829,208.135C195.829,224.135 202,217 199,236C195,228 189,221 181,218L199,259L173,233C178,250 186,263 195,274C184,271 173,264 162,252C177,266 183,283 184,300L162,275C184,306 162,325 166,341C142,311 128,273 145,210C133,220 121,227 110,232C112,222 113,214 109,207C107,225 101,239 94,248L94,210C88,224 85,240 86,256C79,247 74,237 72,222C70,252 64,264 57,270L61,237C48,265 33,281 16,288C31,221 61,160 153,122C136,121 121,119 105,113L120,91L82,113L104,83C91,95 79,102 68,106C71,94 78,85 86,76C71,89 56,97 38,97L64,75C33,95 18,76 0,79C86,5 152,61 208,115C234,17 273,5 330,0L311,24L285,30L304,30C301,36 290,40 274,41C287,42 292,44 293,49C282,48 272,51 263,56L284,56C277,63 267,66 257,67L275,67C265,83 252,97 238,109C296,68 355,65 408,117C388,117 375,126 353,105C358,110 362,116 365,124C354,123 344,116 334,106L342,124C333,124 325,119 315,109L326,128C317,127 308,122 300,113L308,131C294,130 279,131 262,134C351,170 370,225 391,289C378,280 355,277 351,241L349,271C342,265 337,254 336,226C334,239 330,250 325,259L316,218L314,251L301,215L299,236C273,223 275.266,222.948 255.096,212.514C265.586,231.824 264.777,267.518 254.614,296.163L211.38,273.939Z"/>
    </g>
</svg>
