<?xml version="1.0" encoding="UTF-8" standalone="no"?>
<!DOCTYPE svg PUBLIC "-//W3C//DTD SVG 1.1//EN" "http://www.w3.org/Graphics/SVG/1.1/DTD/svg11.dtd">
<svg width="100%" height="100%" viewBox="0 0 1082 241" version="1.1" xmlns="http://www.w3.org/2000/svg" xmlns:xlink="http://www.w3.org/1999/xlink" xml:space="preserve" xmlns:serif="http://www.serif.com/" style="fill-rule:evenodd;clip-rule:evenodd;stroke-linejoin:round;stroke-miterlimit:2;">
    <g transform="matrix(1.04112,0,0,1.04112,-44.5661,-57.9378)">
        <path d="M185.874,173.214C177.074,198.28 168.007,227.614 163.74,247.347C159.74,266.28 162.94,275.88 172.007,284.147C175.474,287.347 177.874,286.014 180.007,282.814C212.274,233.214 251.74,184.147 271.207,158.547C284.807,140.68 288.274,129.214 286.674,119.88C286.14,116.147 283.474,115.614 280.274,118.814C256.807,143.88 205.074,212.414 178.14,256.414C188.274,217.747 199.474,185.214 208.007,160.147C214.674,139.88 213.34,133.214 208.007,125.48C205.874,122.28 203.207,123.08 201.34,125.214C173.874,158.547 132.807,214.547 108.007,255.08C119.474,217.214 132.54,182.547 141.34,158.547C149.074,138.014 148.54,128.414 144.007,120.68C142.14,117.48 139.474,117.747 137.34,121.747C124.274,146.814 102.674,208.147 93.074,248.68C88.807,267.08 90.94,277.214 100.274,285.48C103.74,288.414 106.407,287.08 108.274,284.147C130.94,248.147 161.874,204.68 185.874,173.214Z" style="fill:white;fill-rule:nonzero;"/>
    </g>
    <g transform="matrix(1.04112,0,0,1.04112,-44.5661,-57.9378)">
        <path d="M320.274,194.814C320.807,184.414 315.474,175.614 304.007,175.614C290.674,175.614 269.607,187.614 248.007,219.08C225.874,251.347 230.94,285.214 255.74,285.214C268.54,285.214 280.54,275.347 289.074,264.414C289.074,276.947 296.54,285.48 310.94,286.28C325.607,287.08 342.407,272.414 349.34,257.747C352.807,250.28 352.807,243.614 351.74,241.214C350.674,238.814 348.807,239.08 347.474,241.48C338.14,259.88 323.474,278.014 312.54,278.547C303.474,279.08 303.74,267.614 310.407,252.68C316.807,238.547 330.14,218.547 336.007,206.547C342.407,193.214 340.274,181.747 336.274,176.947C334.407,174.547 332.274,175.08 329.874,178.547C326.94,182.814 323.74,188.414 320.274,194.814ZM297.074,236.147C283.474,259.614 269.607,276.68 258.674,276.414C248.274,276.147 251.74,252.68 265.874,229.747C280.54,206.014 300.007,188.68 308.54,189.48C316.274,190.28 313.874,206.814 297.074,236.147Z" style="fill:white;fill-rule:nonzero;"/>
    </g>
    <g transform="matrix(1.04112,0,0,1.04112,-44.5661,-57.9378)">
        <path d="M385.074,203.08C388.007,193.48 388.274,184.414 384.274,177.747C382.674,175.08 380.54,174.814 378.674,177.747C361.874,202.547 341.34,239.614 336.007,256.414C331.74,269.747 333.34,278.547 338.674,283.88C341.074,286.28 342.674,285.214 343.74,282.814C355.207,257.747 366.94,232.147 382.674,215.08C399.74,196.414 415.207,188.947 417.874,190.014C422.674,192.147 399.207,220.414 390.407,246.547C382.674,269.747 388.007,286.28 410.674,286.28C426.14,286.28 442.94,272.68 450.14,257.747C453.874,250.014 454.407,243.88 452.54,240.947C451.207,238.814 449.34,238.814 448.007,241.214C437.874,259.88 424.807,277.48 413.874,278.014C404.274,278.547 402.674,266.014 409.607,250.547C415.74,236.68 428.807,216.947 434.407,205.214C441.074,191.347 432.807,178.28 424.007,176.947C415.207,175.614 397.074,190.28 385.074,203.08Z" style="fill:white;fill-rule:nonzero;"/>
    </g>
    <g transform="matrix(1.04112,0,0,1.04112,-44.5661,-57.9378)">
        <path d="M518.674,252.68C532.007,224.414 557.607,180.414 570.407,157.48C581.607,137.48 582.407,126.014 578.674,117.214C577.34,113.747 574.94,113.48 572.274,117.214C562.674,130.814 542.407,167.08 528.007,194.547C528.274,184.68 522.94,176.414 512.007,176.414C498.674,176.414 477.34,188.414 456.274,219.347C434.407,251.347 439.207,285.214 464.007,285.214C476.54,285.214 488.54,275.347 497.074,264.68C497.074,277.214 504.274,285.214 518.674,286.014C533.34,286.814 549.874,272.68 557.074,258.014C560.54,250.814 560.274,243.88 559.207,241.48C558.14,239.347 556.274,239.347 554.94,241.747C545.607,260.147 531.207,278.014 520.274,278.547C511.207,279.08 511.474,268.147 518.674,252.68ZM516.274,190.014C524.007,190.28 520.007,207.08 504.54,236.68C492.007,260.947 477.607,276.68 466.94,276.414C456.54,276.147 459.474,252.947 473.874,230.014C488.54,206.547 508.007,189.747 516.274,190.014Z" style="fill:white;fill-rule:nonzero;"/>
    </g>
    <g transform="matrix(1.04112,0,0,1.04112,-44.5661,-57.9378)">
        <path d="M726.94,258.014C730.14,250.547 729.607,243.614 728.274,240.68C727.207,238.28 725.34,238.814 724.274,240.947C715.74,260.68 702.14,278.28 690.94,277.747C682.94,277.48 679.74,266.814 684.274,252.147C688.807,237.747 702.407,219.614 714.94,205.747C722.94,196.947 716.274,184.147 710.94,178.28C709.074,175.614 706.674,176.947 703.474,179.08C693.074,186.014 683.74,190.28 674.407,191.614C681.074,174.28 683.74,158.014 675.474,158.28C664.274,158.814 638.14,194.28 658.674,202.814C644.007,236.68 614.674,278.814 585.34,277.48C571.74,276.947 565.074,259.614 573.607,235.347C592.274,250.28 610.14,243.614 622.674,227.347C633.34,213.747 636.007,198.014 631.474,191.614C627.207,185.747 622.407,182.014 615.74,178.014C602.407,170.28 575.207,185.214 558.407,218.28C541.074,252.414 552.54,285.48 586.407,284.947C618.14,284.414 646.94,250.814 669.074,204.414C677.34,204.414 689.34,201.747 701.074,194.28C689.607,207.08 673.607,226.814 668.007,244.68C661.34,266.28 669.34,284.414 689.607,285.48C704.274,286.28 720.274,274.014 726.94,258.014ZM576.007,229.48C576.807,228.147 577.34,226.28 578.14,224.947C590.407,200.414 612.274,183.614 618.14,188.68C621.607,191.614 616.007,205.48 607.474,216.414C599.474,226.547 589.074,237.48 576.007,229.48Z" style="fill:white;fill-rule:nonzero;"/>
    </g>
    <g transform="matrix(1.04112,0,0,1.04112,-44.5661,-57.9378)">
        <path d="M735.74,266.547C755.474,223.88 779.74,182.814 793.607,157.48C804.54,137.747 803.474,126.547 800.274,119.88C798.674,116.414 796.274,116.147 793.874,119.347C777.607,142.014 733.607,222.814 720.807,255.88C718.14,262.814 718.14,266.814 720.007,271.347C721.34,274.547 724.54,279.347 726.94,282.814C729.874,287.08 732.54,287.08 738.94,285.48C754.407,281.48 783.74,274.814 797.074,275.08C800.54,275.08 800.54,273.214 799.74,271.08C796.807,263.08 789.607,258.014 776.274,259.08C766.14,259.88 750.94,262.547 735.74,266.547Z" style="fill:white;fill-rule:nonzero;"/>
    </g>
    <g transform="matrix(1.04112,0,0,1.04112,-44.5661,-57.9378)">
        <path d="M865.34,259.88C863.207,275.347 870.14,286.28 887.474,286.28C903.207,286.28 919.74,272.68 927.474,257.747C931.207,250.28 930.94,243.08 929.874,240.947C928.807,238.547 926.407,238.814 925.074,241.214C914.674,259.88 901.074,277.48 889.874,278.014C880.274,278.547 879.207,267.347 886.14,252.147C892.274,238.547 905.607,218.547 911.474,206.547C917.874,193.214 915.74,181.48 911.74,176.68C909.607,174.014 907.74,174.547 905.074,178.28C896.54,189.747 888.807,208.147 872.007,235.347C857.607,258.547 842.94,277.214 832.54,276.414C826.407,275.88 825.607,266.28 831.207,253.214C836.807,240.414 842.14,229.747 852.007,214.014C861.607,198.814 862.94,186.814 857.074,178.014C854.94,175.614 852.274,175.347 850.14,178.28C832.807,202.547 819.207,228.68 813.34,246.28C807.474,263.88 808.007,283.614 826.94,284.947C841.874,286.014 856.007,272.414 865.34,259.88Z" style="fill:white;fill-rule:nonzero;"/>
    </g>
    <g transform="matrix(1.04112,0,0,1.04112,-44.5661,-57.9378)">
        <path d="M930.14,237.747C929.874,235.614 929.874,233.48 929.607,231.347C929.34,227.08 927.207,226.014 924.007,228.68C914.94,236.147 914.14,253.747 920.54,265.747C929.607,282.28 944.54,286.28 960.007,285.747C978.94,284.947 997.074,274.814 1007.21,256.414C1011.74,248.147 1012.01,241.214 1010.94,238.814C1009.87,236.68 1007.21,235.88 1005.87,238.814C999.207,253.214 988.007,269.214 970.14,275.88C979.74,269.48 981.607,258.28 982.14,247.88C982.94,229.48 977.874,208.68 979.74,184.147C980.807,182.28 981.607,180.68 982.674,179.08C986.14,172.947 987.474,170.014 984.807,167.347C982.407,164.947 976.274,166.014 970.407,171.347C964.807,176.414 962.14,181.48 960.807,191.88C953.074,205.48 941.074,222.814 930.14,237.747ZM960.274,208.947C961.34,230.28 965.34,272.147 953.074,275.88C944.274,278.547 936.54,267.614 932.54,252.147C942.674,237.747 952.54,223.08 960.274,208.947Z" style="fill:white;fill-rule:nonzero;"/>
    </g>
    <g transform="matrix(1.04112,0,0,1.04112,-44.5661,-57.9378)">
        <path d="M1033.61,177.747C1022.14,198.814 1010.94,221.214 1005.34,234.547C992.543,265.214 1006.68,284.947 1024.28,285.48C1045.61,286.28 1063.21,262.814 1066.68,255.08C1069.34,248.947 1070.68,244.147 1069.34,239.88C1068.28,236.147 1065.34,236.68 1063.74,239.88C1053.88,259.88 1038.68,278.814 1026.68,278.28C1015.48,277.747 1012.54,261.214 1021.34,241.747C1031.48,219.347 1046.68,193.48 1057.08,175.614C1063.74,174.547 1072.01,173.747 1077.88,174.547C1081.88,174.547 1082.94,172.68 1081.08,169.48C1078.94,166.014 1074.94,161.214 1064.54,161.48C1070.94,147.614 1070.94,138.814 1068.01,131.347C1066.68,128.147 1064.01,127.88 1061.61,131.347C1057.08,137.214 1049.61,149.747 1041.34,164.414C1034.14,165.214 1026.68,165.747 1019.21,165.48C1015.21,165.214 1013.61,167.08 1016.28,170.814C1018.41,173.747 1024.54,177.747 1033.61,177.747Z" style="fill:white;fill-rule:nonzero;"/>
    </g>
    <g transform="matrix(0.367079,-0.0917951,0.0679041,0.271542,-5.36443,30.2924)">
        <path d="M211.38,273.939C221.479,256.179 224.683,230.973 204.829,208.135C195.829,224.135 202,217 199,236C195,228 189,221 181,218L199,259L173,233C178,250 186,263 195,274C184,271 173,264 162,252C177,266 183,283 184,300L162,275C184,306 162,325 166,341C142,311 128,273 145,210C133,220 121,227 110,232C112,222 113,214 109,207C107,225 101,239 94,248L94,210C88,224 85,240 86,256C79,247 74,237 72,222C70,252 64,264 57,270L61,237C48,265 33,281 16,288C31,221 61,160 153,122C136,121 121,119 105,113L120,91L82,113L104,83C91,95 79,102 68,106C71,94 78,85 86,76C71,89 56,97 38,97L64,75C33,95 18,76 0,79C86,5 152,61 208,115C234,17 273,5 330,0L311,24L285,30L304,30C301,36 290,40 274,41C287,42 292,44 293,49C282,48 272,51 263,56L284,56C277,63 267,66 257,67L275,67C265,83 252,97 238,109C296,68 355,65 408,117C388,117 375,126 353,105C358,110 362,116 365,124C354,123 344,116 334,106L342,124C333,124 325,119 315,109L326,128C317,127 308,122 300,113L308,131C294,130 279,131 262,134C351,170 370,225 391,289C378,280 355,277 351,241L349,271C342,265 337,254 336,226C334,239 330,250 325,259L316,218L314,251L301,215L299,236C273,223 275.266,222.948 255.096,212.514C265.586,231.824 264.777,267.518 254.614,296.163L211.38,273.939Z" style="fill:white;"/>
    </g>
</svg>
